<svg xmlns="http://www.w3.org/2000/svg" xmlns:xlink="http://www.w3.org/1999/xlink" width="500" zoomAndPan="magnify" viewBox="0 0 375 374.999991" height="500" preserveAspectRatio="xMidYMid meet" version="1.0"><defs><clipPath id="2a6635b0f1"><path d="M 302 188 L 349.785156 188 L 349.785156 200 L 302 200 Z M 302 188 " clip-rule="nonzero"/></clipPath><clipPath id="1a785c1231"><path d="M 148 18.335938 L 165 18.335938 L 165 65 L 148 65 Z M 148 18.335938 " clip-rule="nonzero"/></clipPath><clipPath id="13e2c42b8b"><path d="M 86.179688 85 L 286 85 L 286 306 L 86.179688 306 Z M 86.179688 85 " clip-rule="nonzero"/></clipPath></defs><g clip-path="url(#2a6635b0f1)"><path fill="#3c3c3b" d="M 346.273438 199.429688 L 345.882812 199.429688 L 305.105469 194.253906 C 304.710938 194.203125 304.335938 194.078125 303.988281 193.878906 C 303.640625 193.679688 303.347656 193.421875 303.101562 193.109375 C 302.855469 192.792969 302.683594 192.441406 302.578125 192.058594 C 302.472656 191.671875 302.445312 191.285156 302.5 190.886719 C 302.550781 190.492188 302.675781 190.125 302.875 189.777344 C 303.074219 189.433594 303.335938 189.140625 303.652344 188.894531 C 303.96875 188.652344 304.320312 188.480469 304.707031 188.375 C 305.09375 188.273438 305.488281 188.246094 305.882812 188.300781 L 346.632812 193.597656 C 347.03125 193.625 347.40625 193.722656 347.765625 193.898438 C 348.121094 194.074219 348.429688 194.308594 348.691406 194.605469 C 348.957031 194.902344 349.152344 195.238281 349.277344 195.613281 C 349.40625 195.988281 349.457031 196.371094 349.433594 196.765625 C 349.40625 197.164062 349.304688 197.535156 349.128906 197.890625 C 348.953125 198.246094 348.714844 198.554688 348.417969 198.816406 C 348.117188 199.078125 347.78125 199.269531 347.402344 199.398438 C 347.027344 199.527344 346.640625 199.578125 346.242188 199.550781 Z M 346.273438 199.429688 " fill-opacity="1" fill-rule="nonzero"/></g><path fill="#3c3c3b" d="M 29.660156 196.484375 C 29.261719 196.507812 28.875 196.453125 28.5 196.320312 C 28.125 196.191406 27.789062 195.992188 27.496094 195.730469 C 27.199219 195.464844 26.964844 195.15625 26.792969 194.796875 C 26.621094 194.441406 26.523438 194.066406 26.5 193.671875 C 26.480469 193.277344 26.535156 192.894531 26.667969 192.519531 C 26.796875 192.148438 26.996094 191.8125 27.261719 191.519531 C 27.527344 191.226562 27.839844 190.992188 28.199219 190.820312 C 28.554688 190.648438 28.933594 190.554688 29.332031 190.53125 L 70.199219 186.007812 C 70.59375 185.964844 70.984375 185.996094 71.371094 186.109375 C 71.753906 186.21875 72.101562 186.398438 72.410156 186.648438 C 72.722656 186.894531 72.976562 187.195312 73.167969 187.542969 C 73.359375 187.890625 73.476562 188.261719 73.523438 188.65625 C 73.566406 189.050781 73.53125 189.4375 73.421875 189.820312 C 73.308594 190.203125 73.128906 190.546875 72.878906 190.855469 C 72.628906 191.167969 72.328125 191.417969 71.976562 191.609375 C 71.628906 191.800781 71.253906 191.917969 70.855469 191.960938 L 29.988281 196.484375 Z M 29.660156 196.484375 " fill-opacity="1" fill-rule="nonzero"/><path fill="#3c3c3b" d="M 77.984375 136.121094 C 77.601562 136.109375 77.234375 136.039062 76.875 135.910156 L 38.640625 121.058594 C 38.253906 120.925781 37.910156 120.722656 37.609375 120.453125 C 37.304688 120.179688 37.066406 119.859375 36.894531 119.492188 C 36.726562 119.121094 36.632812 118.734375 36.621094 118.332031 C 36.609375 117.925781 36.679688 117.53125 36.828125 117.15625 C 36.976562 116.777344 37.195312 116.441406 37.480469 116.152344 C 37.765625 115.863281 38.097656 115.644531 38.476562 115.488281 C 38.855469 115.335938 39.246094 115.261719 39.65625 115.265625 C 40.0625 115.273438 40.453125 115.355469 40.828125 115.519531 L 79.121094 130.402344 C 79.453125 130.523438 79.757812 130.699219 80.027344 130.925781 C 80.300781 131.152344 80.523438 131.417969 80.699219 131.722656 C 80.875 132.03125 80.992188 132.355469 81.050781 132.703125 C 81.113281 133.050781 81.109375 133.398438 81.042969 133.746094 C 80.980469 134.09375 80.855469 134.417969 80.675781 134.71875 C 80.496094 135.023438 80.265625 135.285156 79.992188 135.507812 C 79.71875 135.734375 79.414062 135.902344 79.078125 136.015625 C 78.742188 136.132812 78.398438 136.183594 78.042969 136.179688 Z M 77.984375 136.121094 " fill-opacity="1" fill-rule="nonzero"/><path fill="#3c3c3b" d="M 110.496094 90.070312 C 109.578125 90.070312 108.820312 89.722656 108.222656 89.027344 L 81.277344 58.191406 C 81.019531 57.886719 80.832031 57.546875 80.710938 57.167969 C 80.59375 56.789062 80.550781 56.402344 80.585938 56.007812 C 80.621094 55.613281 80.730469 55.242188 80.914062 54.890625 C 81.101562 54.539062 81.34375 54.234375 81.652344 53.980469 C 81.957031 53.726562 82.300781 53.539062 82.679688 53.417969 C 83.058594 53.300781 83.449219 53.257812 83.847656 53.292969 C 84.242188 53.328125 84.617188 53.4375 84.972656 53.621094 C 85.324219 53.804688 85.632812 54.046875 85.886719 54.351562 L 112.832031 85.1875 C 113.09375 85.488281 113.285156 85.824219 113.410156 86.199219 C 113.535156 86.570312 113.585938 86.957031 113.558594 87.347656 C 113.527344 87.742188 113.425781 88.117188 113.25 88.46875 C 113.070312 88.820312 112.832031 89.128906 112.535156 89.386719 C 111.941406 89.875 111.265625 90.101562 110.496094 90.070312 Z M 110.496094 90.070312 " fill-opacity="1" fill-rule="nonzero"/><g clip-path="url(#1a785c1231)"><path fill="#3c3c3b" d="M 160.976562 64.351562 C 160.632812 64.363281 160.296875 64.3125 159.96875 64.207031 C 159.640625 64.101562 159.34375 63.945312 159.070312 63.734375 C 158.796875 63.527344 158.566406 63.28125 158.378906 62.992188 C 158.195312 62.703125 158.0625 62.394531 157.980469 62.0625 L 148.609375 22.292969 C 148.519531 21.898438 148.507812 21.503906 148.574219 21.101562 C 148.644531 20.703125 148.785156 20.332031 149 19.988281 C 149.21875 19.644531 149.492188 19.355469 149.824219 19.121094 C 150.15625 18.886719 150.519531 18.722656 150.917969 18.632812 C 151.3125 18.542969 151.710938 18.53125 152.113281 18.597656 C 152.515625 18.664062 152.890625 18.804688 153.234375 19.019531 C 153.582031 19.234375 153.871094 19.507812 154.105469 19.835938 C 154.34375 20.167969 154.507812 20.53125 154.597656 20.925781 L 164.058594 60.691406 C 164.152344 61.078125 164.167969 61.46875 164.105469 61.863281 C 164.042969 62.253906 163.90625 62.621094 163.695312 62.960938 C 163.484375 63.296875 163.214844 63.582031 162.890625 63.8125 C 162.5625 64.046875 162.203125 64.207031 161.8125 64.292969 C 161.539062 64.359375 161.257812 64.378906 160.976562 64.351562 Z M 160.976562 64.351562 " fill-opacity="1" fill-rule="nonzero"/></g><path fill="#3c3c3b" d="M 217.652344 64.949219 C 217.402344 64.976562 217.152344 64.976562 216.902344 64.949219 C 216.519531 64.851562 216.171875 64.683594 215.855469 64.449219 C 215.539062 64.210938 215.28125 63.925781 215.082031 63.589844 C 214.878906 63.25 214.75 62.890625 214.691406 62.5 C 214.632812 62.113281 214.652344 61.726562 214.746094 61.347656 L 224.898438 21.609375 C 224.996094 21.226562 225.164062 20.875 225.40625 20.5625 C 225.644531 20.246094 225.933594 19.988281 226.277344 19.785156 C 226.621094 19.585938 226.988281 19.457031 227.382812 19.402344 C 227.777344 19.34375 228.164062 19.367188 228.550781 19.464844 C 228.933594 19.566406 229.285156 19.734375 229.605469 19.96875 C 229.921875 20.207031 230.183594 20.496094 230.382812 20.835938 C 230.585938 21.179688 230.714844 21.542969 230.769531 21.9375 C 230.828125 22.328125 230.804688 22.714844 230.707031 23.097656 L 220.554688 62.6875 C 220.476562 63.007812 220.34375 63.308594 220.164062 63.589844 C 219.980469 63.867188 219.757812 64.109375 219.496094 64.316406 C 219.234375 64.519531 218.945312 64.675781 218.628906 64.785156 C 218.3125 64.894531 217.988281 64.949219 217.652344 64.949219 Z M 217.652344 64.949219 " fill-opacity="1" fill-rule="nonzero"/><path fill="#3c3c3b" d="M 267.5 91.558594 C 266.910156 91.5625 266.363281 91.40625 265.863281 91.089844 C 265.363281 90.769531 264.992188 90.339844 264.746094 89.800781 C 264.503906 89.265625 264.429688 88.703125 264.519531 88.121094 C 264.613281 87.539062 264.859375 87.027344 265.257812 86.589844 L 292.832031 56.257812 C 293.101562 55.960938 293.417969 55.730469 293.78125 55.558594 C 294.144531 55.390625 294.523438 55.296875 294.925781 55.277344 C 295.324219 55.257812 295.714844 55.316406 296.089844 55.453125 C 296.46875 55.589844 296.804688 55.789062 297.101562 56.058594 C 297.398438 56.328125 297.628906 56.644531 297.800781 57.003906 C 297.96875 57.363281 298.0625 57.746094 298.082031 58.144531 C 298.101562 58.542969 298.039062 58.925781 297.902344 59.300781 C 297.765625 59.675781 297.5625 60.011719 297.292969 60.304688 L 269.71875 90.578125 C 269.125 91.230469 268.386719 91.558594 267.5 91.558594 Z M 267.5 91.558594 " fill-opacity="1" fill-rule="nonzero"/><path fill="#3c3c3b" d="M 299.117188 138.203125 C 298.765625 138.203125 298.425781 138.140625 298.09375 138.023438 C 297.765625 137.902344 297.464844 137.730469 297.195312 137.503906 C 296.925781 137.277344 296.703125 137.015625 296.527344 136.710938 C 296.351562 136.410156 296.234375 136.085938 296.171875 135.738281 C 296.113281 135.394531 296.113281 135.050781 296.175781 134.707031 C 296.234375 134.363281 296.355469 134.039062 296.53125 133.734375 C 296.707031 133.433594 296.929688 133.167969 297.199219 132.945312 C 297.46875 132.71875 297.769531 132.546875 298.101562 132.429688 L 336.664062 118.289062 C 337.023438 118.1875 337.394531 118.15625 337.765625 118.195312 C 338.140625 118.234375 338.496094 118.335938 338.828125 118.507812 C 339.164062 118.675781 339.457031 118.902344 339.703125 119.183594 C 339.953125 119.460938 340.144531 119.777344 340.273438 120.125 C 340.402344 120.476562 340.464844 120.839844 340.457031 121.210938 C 340.453125 121.585938 340.375 121.945312 340.234375 122.289062 C 340.089844 122.636719 339.890625 122.945312 339.628906 123.214844 C 339.371094 123.484375 339.070312 123.699219 338.730469 123.855469 L 300.285156 138.023438 C 299.910156 138.160156 299.519531 138.222656 299.117188 138.203125 Z M 299.117188 138.203125 " fill-opacity="1" fill-rule="nonzero"/><g clip-path="url(#13e2c42b8b)"><path fill="#ffffff" d="M 228.15625 291.722656 C 228.164062 290.128906 228.265625 288.542969 228.460938 286.964844 C 228.65625 285.386719 228.945312 283.824219 229.328125 282.277344 C 229.707031 280.734375 230.179688 279.21875 230.742188 277.730469 C 231.304688 276.242188 231.953125 274.792969 232.6875 273.386719 C 233.425781 271.976562 234.242188 270.617188 235.136719 269.304688 C 236.035156 267.992188 237.003906 266.742188 238.050781 265.546875 C 239.097656 264.355469 240.210938 263.226562 241.390625 262.167969 C 242.570312 261.109375 243.808594 260.125 245.109375 259.214844 C 246.796875 258.035156 248.445312 256.796875 250.054688 255.507812 C 251.660156 254.21875 253.226562 252.878906 254.75 251.488281 C 256.269531 250.09375 257.742188 248.652344 259.171875 247.164062 C 260.597656 245.675781 261.976562 244.140625 263.304688 242.558594 C 264.632812 240.980469 265.910156 239.355469 267.132812 237.691406 C 268.355469 236.027344 269.523438 234.328125 270.632812 232.585938 C 271.746094 230.84375 272.800781 229.070312 273.796875 227.257812 C 274.792969 225.449219 275.730469 223.605469 276.609375 221.734375 C 277.488281 219.863281 278.300781 217.964844 279.054688 216.039062 C 279.808594 214.113281 280.5 212.164062 281.128906 210.191406 C 281.753906 208.222656 282.320312 206.234375 282.816406 204.222656 C 283.316406 202.214844 283.746094 200.195312 284.113281 198.15625 C 284.480469 196.121094 284.78125 194.074219 285.015625 192.015625 C 285.25 189.960938 285.417969 187.898438 285.515625 185.832031 C 285.617188 183.765625 285.648438 181.695312 285.617188 179.625 C 285.582031 177.554688 285.480469 175.488281 285.3125 173.425781 C 281.261719 126.273438 241.667969 88.527344 193.035156 85.28125 C 134.875 81.359375 86.179688 125.96875 86.179688 181.546875 C 86.203125 185.367188 86.449219 189.175781 86.925781 192.96875 C 87.402344 196.761719 88.101562 200.511719 89.027344 204.21875 C 89.953125 207.925781 91.09375 211.566406 92.453125 215.132812 C 93.8125 218.703125 95.382812 222.175781 97.15625 225.554688 C 98.933594 228.933594 100.902344 232.195312 103.066406 235.335938 C 105.234375 238.476562 107.578125 241.472656 110.101562 244.328125 C 112.625 247.1875 115.308594 249.878906 118.15625 252.410156 C 121 254.941406 123.988281 257.292969 127.113281 259.460938 C 128.390625 260.367188 129.613281 261.347656 130.773438 262.40625 C 131.933594 263.460938 133.03125 264.582031 134.058594 265.769531 C 135.085938 266.957031 136.039062 268.199219 136.917969 269.503906 C 137.800781 270.804688 138.597656 272.15625 139.316406 273.554688 C 140.035156 274.953125 140.671875 276.390625 141.21875 277.863281 C 141.765625 279.339844 142.226562 280.84375 142.59375 282.371094 C 142.964844 283.902344 143.242188 285.449219 143.425781 287.015625 C 143.609375 288.578125 143.703125 290.148438 143.699219 291.722656 L 143.699219 305.019531 L 228.15625 305.019531 Z M 228.15625 291.722656 " fill-opacity="1" fill-rule="nonzero"/></g><path fill="#ffffff" d="M 265.742188 208.140625 C 265.136719 208.144531 264.535156 208.070312 263.945312 207.925781 C 263.511719 207.808594 263.089844 207.644531 262.6875 207.445312 C 262.28125 207.242188 261.902344 207.003906 261.546875 206.726562 C 261.1875 206.445312 260.859375 206.136719 260.566406 205.792969 C 260.269531 205.453125 260.007812 205.085938 259.78125 204.691406 C 259.558594 204.296875 259.375 203.882812 259.230469 203.453125 C 259.085938 203.023438 258.984375 202.582031 258.925781 202.132812 C 258.867188 201.683594 258.855469 201.230469 258.886719 200.777344 C 258.914062 200.324219 258.988281 199.878906 259.109375 199.4375 C 259.472656 197.96875 259.839844 196.375 260.113281 195.027344 C 260.199219 194.582031 260.328125 194.148438 260.5 193.726562 C 260.671875 193.304688 260.882812 192.90625 261.132812 192.527344 C 261.382812 192.148438 261.667969 191.796875 261.984375 191.472656 C 262.304688 191.148438 262.652344 190.863281 263.027344 190.609375 C 263.402344 190.355469 263.796875 190.140625 264.214844 189.964844 C 264.632812 189.789062 265.0625 189.65625 265.503906 189.566406 C 265.949219 189.476562 266.398438 189.429688 266.847656 189.429688 C 267.300781 189.425781 267.75 189.46875 268.191406 189.558594 C 268.636719 189.644531 269.066406 189.777344 269.484375 189.949219 C 269.902344 190.121094 270.300781 190.335938 270.675781 190.585938 C 271.054688 190.835938 271.402344 191.125 271.722656 191.445312 C 272.042969 191.765625 272.328125 192.113281 272.582031 192.492188 C 272.835938 192.871094 273.046875 193.269531 273.222656 193.6875 C 273.394531 194.109375 273.527344 194.542969 273.617188 194.988281 C 273.707031 195.433594 273.75 195.886719 273.753906 196.339844 C 273.753906 196.796875 273.710938 197.246094 273.625 197.691406 C 273.257812 199.5 272.863281 201.246094 272.375 203.023438 C 272.183594 203.757812 271.875 204.441406 271.453125 205.074219 C 271.035156 205.707031 270.523438 206.257812 269.925781 206.71875 C 269.324219 207.183594 268.667969 207.535156 267.949219 207.777344 C 267.234375 208.023438 266.5 208.140625 265.742188 208.140625 Z M 265.742188 208.140625 " fill-opacity="1" fill-rule="nonzero"/><path fill="#ffffff" d="M 206.941406 100.8125 C 211.238281 101.738281 215.441406 102.972656 219.558594 104.523438 C 223.671875 106.074219 227.648438 107.921875 231.488281 110.066406 C 235.332031 112.210938 238.996094 114.628906 242.480469 117.316406 C 245.964844 120.007812 249.234375 122.941406 252.289062 126.121094 C 255.410156 129.367188 258.25 132.851562 260.804688 136.566406 C 263.359375 140.28125 265.597656 144.179688 267.519531 148.265625 C 269.4375 152.351562 271.015625 156.566406 272.25 160.910156 C 273.484375 165.257812 274.359375 169.671875 274.871094 174.164062 C 274.921875 174.613281 274.925781 175.066406 274.886719 175.523438 C 274.847656 175.976562 274.761719 176.421875 274.636719 176.859375 C 274.507812 177.292969 274.339844 177.714844 274.132812 178.117188 C 273.921875 178.523438 273.675781 178.902344 273.394531 179.257812 C 273.109375 179.613281 272.796875 179.933594 272.449219 180.226562 C 272.101562 180.519531 271.730469 180.777344 271.335938 180.996094 C 270.9375 181.214844 270.523438 181.390625 270.09375 181.527344 C 269.660156 181.664062 269.21875 181.757812 268.769531 181.804688 C 268.320312 181.855469 267.871094 181.859375 267.421875 181.820312 C 266.96875 181.78125 266.527344 181.695312 266.09375 181.570312 C 265.660156 181.441406 265.242188 181.273438 264.839844 181.0625 C 264.4375 180.851562 264.0625 180.605469 263.710938 180.316406 C 263.355469 180.03125 263.035156 179.714844 262.746094 179.367188 C 262.453125 179.019531 262.199219 178.644531 261.984375 178.246094 C 261.765625 177.84375 261.589844 177.429688 261.453125 176.992188 C 261.316406 176.558594 261.226562 176.117188 261.175781 175.664062 C 261.160156 175.53125 261.160156 175.398438 261.175781 175.265625 C 260.941406 171.429688 260.394531 167.636719 259.535156 163.886719 C 258.679688 160.140625 257.527344 156.488281 256.074219 152.933594 C 254.625 149.378906 252.894531 145.964844 250.882812 142.695312 C 248.875 139.421875 246.617188 136.339844 244.101562 133.445312 C 241.542969 130.457031 238.78125 127.679688 235.8125 125.109375 C 232.84375 122.535156 229.703125 120.199219 226.390625 118.097656 C 223.078125 115.992188 219.628906 114.148438 216.042969 112.5625 C 212.457031 110.976562 208.773438 109.664062 204.996094 108.625 C 204.511719 108.46875 204.074219 108.226562 203.679688 107.902344 C 203.289062 107.578125 202.964844 107.195312 202.71875 106.75 C 202.46875 106.300781 202.308594 105.828125 202.238281 105.320312 C 202.167969 104.8125 202.1875 104.3125 202.304688 103.8125 C 202.421875 103.316406 202.625 102.855469 202.914062 102.433594 C 203.203125 102.015625 203.558594 101.660156 203.980469 101.375 C 204.402344 101.085938 204.859375 100.886719 205.355469 100.777344 C 205.851562 100.664062 206.347656 100.644531 206.851562 100.722656 Z M 206.941406 100.8125 " fill-opacity="1" fill-rule="nonzero"/><path fill="#3c3c3b" d="M 143.699219 305.019531 L 143.699219 326.804688 C 143.722656 327.753906 143.832031 328.691406 144.035156 329.621094 C 144.238281 330.550781 144.53125 331.449219 144.910156 332.320312 C 145.289062 333.191406 145.75 334.015625 146.289062 334.792969 C 146.828125 335.574219 147.441406 336.292969 148.121094 336.949219 C 148.800781 337.609375 149.539062 338.195312 150.335938 338.707031 C 151.128906 339.21875 151.96875 339.648438 152.847656 339.996094 C 153.726562 340.339844 154.628906 340.597656 155.558594 340.765625 C 156.488281 340.933594 157.425781 341.007812 158.371094 340.988281 L 213.488281 340.988281 C 214.429688 341.007812 215.367188 340.933594 216.296875 340.765625 C 217.226562 340.597656 218.128906 340.339844 219.011719 339.996094 C 219.890625 339.648438 220.726562 339.21875 221.523438 338.707031 C 222.316406 338.195312 223.054688 337.609375 223.734375 336.949219 C 224.417969 336.292969 225.027344 335.574219 225.566406 334.792969 C 226.109375 334.015625 226.566406 333.191406 226.949219 332.320312 C 227.328125 331.449219 227.617188 330.550781 227.820312 329.621094 C 228.023438 328.691406 228.136719 327.753906 228.15625 326.804688 L 228.15625 305.019531 Z M 143.699219 305.019531 " fill-opacity="1" fill-rule="nonzero"/><path fill="#3c3c3b" d="M 156.179688 330.816406 C 156.195312 331.664062 156.253906 332.507812 156.351562 333.347656 C 156.453125 334.191406 156.59375 335.023438 156.773438 335.851562 C 156.953125 336.679688 157.171875 337.496094 157.433594 338.300781 C 157.695312 339.105469 157.992188 339.898438 158.332031 340.675781 C 158.667969 341.449219 159.042969 342.207031 159.453125 342.945312 C 159.867188 343.683594 160.3125 344.402344 160.792969 345.097656 C 161.273438 345.792969 161.789062 346.460938 162.335938 347.105469 C 162.882812 347.75 163.460938 348.363281 164.066406 348.949219 C 164.671875 349.539062 165.308594 350.09375 165.96875 350.617188 C 166.628906 351.140625 167.316406 351.632812 168.023438 352.089844 C 168.734375 352.542969 169.460938 352.964844 170.210938 353.347656 C 170.960938 353.734375 171.730469 354.078125 172.511719 354.386719 C 173.296875 354.695312 174.09375 354.964844 174.902344 355.195312 C 175.714844 355.421875 176.53125 355.613281 177.363281 355.761719 C 178.191406 355.910156 179.023438 356.015625 179.863281 356.082031 C 180.703125 356.148438 181.542969 356.171875 182.382812 356.15625 L 189.472656 356.15625 C 190.316406 356.171875 191.152344 356.144531 191.992188 356.078125 C 192.832031 356.011719 193.664062 355.90625 194.492188 355.753906 C 195.320312 355.605469 196.136719 355.417969 196.945312 355.1875 C 197.753906 354.957031 198.550781 354.6875 199.335938 354.378906 C 200.117188 354.070312 200.882812 353.722656 201.632812 353.339844 C 202.382812 352.953125 203.109375 352.535156 203.820312 352.078125 C 204.527344 351.621094 205.210938 351.128906 205.871094 350.605469 C 206.53125 350.082031 207.164062 349.527344 207.769531 348.941406 C 208.375 348.351562 208.953125 347.738281 209.5 347.09375 C 210.042969 346.449219 210.558594 345.78125 211.039062 345.085938 C 211.519531 344.394531 211.964844 343.675781 212.375 342.9375 C 212.789062 342.199219 213.160156 341.441406 213.5 340.667969 C 213.835938 339.890625 214.132812 339.101562 214.394531 338.296875 C 214.652344 337.492188 214.875 336.675781 215.054688 335.847656 C 215.234375 335.023438 215.375 334.1875 215.472656 333.347656 C 215.574219 332.507812 215.628906 331.664062 215.648438 330.816406 Z M 156.179688 330.816406 " fill-opacity="1" fill-rule="nonzero"/><path fill="#ffffff" d="M 248.21875 209.03125 C 247.851562 206.875 247.246094 205.613281 247.324219 205.515625 C 261.914062 185.9375 241.246094 173.351562 241.246094 173.351562 C 241.863281 172.824219 242.441406 172.25 242.96875 171.632812 C 243.5 171.015625 243.980469 170.363281 244.410156 169.671875 C 244.835938 168.980469 245.210938 168.261719 245.527344 167.511719 C 245.84375 166.761719 246.101562 165.992188 246.296875 165.203125 C 246.496094 164.414062 246.628906 163.613281 246.703125 162.804688 C 246.777344 161.996094 246.785156 161.183594 246.734375 160.371094 C 246.679688 159.558594 246.566406 158.757812 246.386719 157.964844 C 246.210938 157.167969 245.972656 156.394531 245.675781 155.636719 C 239.964844 140.875 227.960938 145.554688 227.960938 145.554688 C 227.960938 145.554688 234.019531 130.015625 219.976562 120.304688 C 218.152344 119.03125 216.210938 117.972656 214.148438 117.140625 C 213.421875 116.863281 212.679688 116.628906 211.925781 116.441406 C 211.171875 116.253906 210.40625 116.113281 209.632812 116.015625 C 208.863281 115.921875 208.085938 115.875 207.308594 115.871094 C 206.53125 115.871094 205.753906 115.914062 204.980469 116.007812 C 204.207031 116.101562 203.445312 116.238281 202.6875 116.425781 C 201.933594 116.609375 201.191406 116.839844 200.460938 117.113281 C 199.734375 117.390625 199.023438 117.707031 198.335938 118.066406 C 197.644531 118.429688 196.980469 118.828125 196.339844 119.269531 C 195.699219 119.710938 195.085938 120.191406 194.503906 120.707031 C 193.917969 121.222656 193.371094 121.769531 192.851562 122.351562 C 192.335938 122.933594 191.855469 123.542969 191.414062 124.183594 C 190.96875 124.824219 190.566406 125.488281 190.203125 126.175781 C 189.84375 126.867188 189.523438 127.574219 189.246094 128.300781 C 188.96875 129.03125 188.738281 129.769531 188.550781 130.527344 C 188.363281 131.28125 188.222656 132.046875 188.128906 132.820312 C 188.035156 133.589844 187.988281 134.367188 187.984375 135.144531 C 187.988281 134.359375 187.945312 133.578125 187.855469 132.800781 C 187.761719 132.023438 187.621094 131.253906 187.4375 130.492188 C 187.25 129.730469 187.019531 128.980469 186.742188 128.25 C 186.464844 127.515625 186.144531 126.800781 185.78125 126.109375 C 185.417969 125.414062 185.015625 124.742188 184.570312 124.097656 C 184.121094 123.453125 183.640625 122.839844 183.121094 122.253906 C 182.597656 121.664062 182.042969 121.113281 181.457031 120.59375 C 180.867188 120.078125 180.25 119.597656 179.605469 119.152344 C 178.957031 118.710938 178.289062 118.308594 177.59375 117.945312 C 176.898438 117.585938 176.179688 117.265625 175.445312 116.992188 C 174.714844 116.71875 173.964844 116.488281 173.203125 116.304688 C 172.441406 116.121094 171.667969 115.988281 170.890625 115.898438 C 170.113281 115.808594 169.332031 115.765625 168.546875 115.773438 C 167.761719 115.78125 166.984375 115.832031 166.207031 115.933594 C 165.429688 116.035156 164.660156 116.183594 163.902344 116.378906 C 163.140625 116.574219 162.398438 116.8125 161.667969 117.101562 C 159.605469 117.941406 157.664062 118.996094 155.839844 120.265625 C 141.796875 129.976562 147.855469 145.515625 147.855469 145.515625 C 147.855469 145.515625 135.929688 140.796875 130.21875 155.636719 C 129.929688 156.394531 129.695312 157.171875 129.523438 157.964844 C 129.351562 158.761719 129.242188 159.5625 129.195312 160.375 C 129.148438 161.1875 129.160156 161.996094 129.238281 162.804688 C 129.316406 163.617188 129.457031 164.414062 129.65625 165.203125 C 129.855469 165.988281 130.117188 166.757812 130.4375 167.503906 C 130.753906 168.253906 131.128906 168.972656 131.558594 169.660156 C 131.988281 170.351562 132.46875 171.003906 133 171.617188 C 133.53125 172.234375 134.105469 172.804688 134.726562 173.332031 C 134.726562 173.332031 114.058594 185.9375 128.648438 205.515625 C 128.648438 205.515625 128.140625 206.875 127.753906 209.03125 C 127.617188 209.671875 127.535156 210.320312 127.5 210.976562 C 127.363281 214 127.757812 216.957031 128.683594 219.839844 C 129.609375 222.726562 131.007812 225.355469 132.882812 227.738281 C 138.339844 235.410156 149.136719 234.515625 149.136719 234.515625 C 149.136719 234.515625 149.136719 246.617188 159.316406 252.988281 C 160.0625 253.441406 160.832031 253.84375 161.628906 254.191406 C 174.136719 259.554688 187.984375 249.765625 187.984375 236.148438 C 187.984375 249.746094 201.835938 259.457031 214.34375 254.191406 C 215.144531 253.847656 215.914062 253.445312 216.65625 252.988281 C 226.851562 246.617188 226.851562 234.515625 226.851562 234.515625 C 226.851562 234.515625 237.652344 235.410156 243.089844 227.738281 C 244.964844 225.355469 246.363281 222.726562 247.289062 219.839844 C 248.214844 216.957031 248.609375 214 248.472656 210.976562 C 248.449219 210.320312 248.363281 209.671875 248.21875 209.03125 Z M 248.21875 209.03125 " fill-opacity="1" fill-rule="nonzero"/><path fill="#3c3c3b" d="M 168.855469 257.804688 C 166.058594 257.796875 163.378906 257.238281 160.8125 256.136719 C 159.933594 255.75 159.085938 255.300781 158.269531 254.796875 C 156.734375 253.789062 155.328125 252.625 154.054688 251.304688 C 152.777344 249.980469 151.664062 248.539062 150.710938 246.96875 C 149.757812 245.398438 148.992188 243.742188 148.40625 242.003906 C 147.824219 240.261719 147.441406 238.480469 147.253906 236.652344 C 143.542969 236.515625 135.8125 235.429688 131.230469 228.882812 C 125.734375 221.113281 124.101562 213.34375 126.433594 205.828125 C 122.199219 199.804688 120.605469 193.765625 121.769531 187.878906 C 122.472656 184.910156 123.660156 182.148438 125.328125 179.59375 C 126.996094 177.039062 129.046875 174.839844 131.480469 173 C 130.398438 171.78125 129.496094 170.4375 128.785156 168.96875 C 128.070312 167.496094 127.570312 165.957031 127.285156 164.351562 C 127 162.742188 126.9375 161.125 127.097656 159.5 C 127.261719 157.875 127.640625 156.300781 128.238281 154.78125 C 128.613281 153.609375 129.101562 152.484375 129.703125 151.410156 C 130.300781 150.335938 131.003906 149.328125 131.804688 148.394531 C 132.609375 147.460938 133.496094 146.617188 134.46875 145.859375 C 135.441406 145.105469 136.476562 144.453125 137.582031 143.90625 C 139.976562 142.878906 142.46875 142.496094 145.058594 142.757812 C 144.804688 141.625 144.636719 140.480469 144.558594 139.324219 C 144.476562 138.164062 144.480469 137.007812 144.574219 135.851562 C 144.667969 134.691406 144.84375 133.546875 145.109375 132.417969 C 145.375 131.289062 145.722656 130.183594 146.152344 129.105469 C 146.585938 128.027344 147.09375 126.988281 147.679688 125.988281 C 148.269531 124.984375 148.925781 124.035156 149.65625 123.132812 C 150.386719 122.230469 151.179688 121.386719 152.039062 120.601562 C 152.894531 119.820312 153.808594 119.105469 154.773438 118.460938 C 156.691406 117.144531 158.730469 116.050781 160.890625 115.175781 C 162.480469 114.519531 164.128906 114.066406 165.835938 113.820312 C 167.539062 113.574219 169.25 113.539062 170.964844 113.722656 C 172.675781 113.902344 174.339844 114.292969 175.957031 114.890625 C 177.574219 115.488281 179.089844 116.277344 180.507812 117.253906 C 181.976562 118.238281 183.308594 119.386719 184.496094 120.695312 C 185.683594 122.007812 186.691406 123.445312 187.527344 125.003906 C 188.359375 126.5625 188.992188 128.203125 189.421875 129.917969 C 189.851562 131.632812 190.066406 133.375 190.066406 135.144531 L 190.066406 236.148438 C 190.070312 237.941406 189.855469 239.707031 189.417969 241.449219 C 188.984375 243.1875 188.34375 244.847656 187.496094 246.425781 C 186.648438 248.007812 185.621094 249.460938 184.410156 250.785156 C 183.203125 252.109375 181.847656 253.265625 180.351562 254.25 C 178.65625 255.402344 176.828125 256.28125 174.867188 256.886719 C 172.910156 257.492188 170.90625 257.796875 168.855469 257.804688 Z M 149.136719 232.476562 C 149.414062 232.480469 149.675781 232.539062 149.929688 232.644531 C 150.179688 232.753906 150.402344 232.902344 150.597656 233.097656 C 150.789062 233.289062 150.941406 233.515625 151.046875 233.765625 C 151.15625 234.019531 151.210938 234.28125 151.21875 234.554688 C 151.21875 234.554688 151.371094 245.609375 160.421875 251.261719 C 161.046875 251.65625 161.691406 252.007812 162.367188 252.308594 C 163.617188 252.847656 164.917969 253.226562 166.265625 253.4375 C 167.613281 253.652344 168.96875 253.691406 170.324219 253.5625 C 171.683594 253.433594 173.003906 253.136719 174.289062 252.675781 C 175.570312 252.214844 176.777344 251.597656 177.90625 250.832031 C 179.121094 250.035156 180.21875 249.105469 181.203125 248.035156 C 182.1875 246.964844 183.023438 245.789062 183.710938 244.511719 C 184.402344 243.234375 184.925781 241.890625 185.28125 240.480469 C 185.636719 239.070312 185.8125 237.640625 185.8125 236.1875 L 185.8125 135.183594 C 185.804688 133.753906 185.625 132.34375 185.269531 130.957031 C 184.917969 129.574219 184.402344 128.25 183.726562 126.988281 C 183.050781 125.730469 182.230469 124.570312 181.269531 123.511719 C 180.304688 122.453125 179.230469 121.527344 178.042969 120.730469 C 176.902344 119.949219 175.683594 119.316406 174.386719 118.835938 C 173.089844 118.355469 171.753906 118.042969 170.378906 117.894531 C 169 117.75 167.628906 117.773438 166.261719 117.972656 C 164.890625 118.171875 163.566406 118.535156 162.289062 119.0625 C 160.453125 119.84375 158.722656 120.8125 157.101562 121.976562 C 144.671875 130.65625 149.644531 144.234375 149.875 144.796875 C 150.019531 145.1875 150.050781 145.582031 149.960938 145.988281 C 149.875 146.390625 149.683594 146.738281 149.390625 147.03125 C 149.101562 147.320312 148.753906 147.507812 148.351562 147.59375 C 147.953125 147.675781 147.558594 147.644531 147.175781 147.5 C 146.148438 147.109375 136.902344 144.023438 132.164062 156.335938 C 131.910156 156.992188 131.710938 157.667969 131.5625 158.355469 C 131.414062 159.042969 131.316406 159.738281 131.273438 160.441406 C 131.234375 161.144531 131.246094 161.847656 131.3125 162.546875 C 131.378906 163.25 131.5 163.941406 131.671875 164.625 C 131.84375 165.308594 132.066406 165.972656 132.34375 166.621094 C 132.617188 167.269531 132.941406 167.894531 133.3125 168.492188 C 133.683594 169.089844 134.097656 169.65625 134.558594 170.191406 C 135.015625 170.726562 135.511719 171.222656 136.046875 171.679688 C 136.605469 172.140625 136.863281 172.726562 136.824219 173.449219 C 136.800781 173.785156 136.703125 174.097656 136.527344 174.386719 C 136.355469 174.675781 136.121094 174.90625 135.832031 175.082031 C 135.832031 175.082031 127.441406 180.324219 125.8125 188.675781 C 124.859375 193.628906 126.394531 198.835938 130.335938 204.214844 C 130.605469 204.605469 130.75 205.035156 130.773438 205.507812 C 130.800781 205.980469 130.699219 206.421875 130.472656 206.839844 C 128.394531 213.246094 129.773438 219.910156 134.570312 226.648438 C 139.367188 233.390625 148.867188 232.574219 148.964844 232.476562 Z M 149.136719 232.476562 " fill-opacity="1" fill-rule="nonzero"/><path fill="#3c3c3b" d="M 164.347656 154.917969 C 162.660156 154.878906 160.996094 154.671875 159.347656 154.300781 C 157.703125 153.933594 156.109375 153.40625 154.566406 152.71875 C 153.023438 152.035156 151.566406 151.207031 150.1875 150.230469 C 148.808594 149.257812 147.539062 148.160156 146.378906 146.933594 C 146.207031 146.726562 146.078125 146.496094 145.992188 146.238281 C 145.910156 145.980469 145.878906 145.714844 145.898438 145.445312 C 145.917969 145.175781 145.988281 144.917969 146.105469 144.675781 C 146.226562 144.433594 146.386719 144.222656 146.589844 144.042969 C 146.792969 143.863281 147.023438 143.726562 147.277344 143.636719 C 147.535156 143.546875 147.796875 143.507812 148.066406 143.519531 C 148.335938 143.535156 148.597656 143.597656 148.839844 143.710938 C 149.085938 143.824219 149.304688 143.980469 149.488281 144.175781 C 150.507812 145.246094 151.628906 146.195312 152.847656 147.03125 C 154.0625 147.867188 155.355469 148.566406 156.71875 149.132812 C 158.085938 149.695312 159.492188 150.117188 160.945312 150.386719 C 162.398438 150.65625 163.863281 150.777344 165.339844 150.742188 C 166.085938 150.726562 166.824219 150.625 167.546875 150.429688 C 168.269531 150.238281 168.960938 149.964844 169.617188 149.605469 C 170.277344 149.246094 170.882812 148.816406 171.433594 148.3125 C 171.988281 147.808594 172.476562 147.246094 172.894531 146.625 C 173.039062 146.382812 173.226562 146.179688 173.453125 146.011719 C 173.683594 145.847656 173.933594 145.730469 174.210938 145.667969 C 174.484375 145.605469 174.761719 145.597656 175.039062 145.648438 C 175.320312 145.699219 175.574219 145.800781 175.8125 145.953125 C 176.050781 146.109375 176.246094 146.304688 176.402344 146.539062 C 176.558594 146.773438 176.664062 147.03125 176.71875 147.308594 C 176.769531 147.585938 176.765625 147.863281 176.707031 148.136719 C 176.644531 148.414062 176.535156 148.667969 176.371094 148.898438 C 175.78125 149.789062 175.09375 150.601562 174.3125 151.332031 C 173.527344 152.058594 172.671875 152.6875 171.738281 153.210938 C 170.808594 153.738281 169.828125 154.144531 168.796875 154.4375 C 167.765625 154.730469 166.71875 154.894531 165.648438 154.9375 C 165.222656 154.917969 164.773438 154.917969 164.347656 154.917969 Z M 164.347656 154.917969 " fill-opacity="1" fill-rule="nonzero"/><path fill="#3c3c3b" d="M 149.136719 236.632812 C 148.875 236.632812 148.621094 236.582031 148.375 236.484375 C 148.132812 236.386719 147.914062 236.25 147.71875 236.070312 C 147.527344 235.890625 147.375 235.679688 147.261719 235.441406 C 147.144531 235.203125 147.078125 234.953125 147.058594 234.691406 C 147.035156 234.414062 147.066406 234.140625 147.152344 233.875 C 147.238281 233.613281 147.375 233.375 147.558594 233.164062 C 147.742188 232.953125 147.957031 232.785156 148.207031 232.664062 C 148.460938 232.542969 148.722656 232.472656 149.003906 232.457031 C 149.566406 232.457031 162.035156 230.921875 166.738281 212.394531 C 166.816406 212.140625 166.941406 211.910156 167.109375 211.703125 C 167.277344 211.5 167.476562 211.332031 167.707031 211.203125 C 167.941406 211.074219 168.1875 210.992188 168.453125 210.957031 C 168.714844 210.921875 168.976562 210.9375 169.234375 211.003906 C 169.492188 211.070312 169.726562 211.183594 169.941406 211.339844 C 170.15625 211.496094 170.335938 211.6875 170.476562 211.910156 C 170.617188 212.136719 170.714844 212.378906 170.761719 212.640625 C 170.8125 212.902344 170.808594 213.160156 170.757812 213.421875 C 165.300781 234.945312 150.011719 236.535156 149.390625 236.574219 Z M 149.136719 236.632812 " fill-opacity="1" fill-rule="nonzero"/><path fill="#3c3c3b" d="M 127.5 213.734375 C 127.238281 213.734375 126.984375 213.683594 126.738281 213.589844 C 126.492188 213.492188 126.277344 213.351562 126.085938 213.171875 C 125.894531 212.992188 125.742188 212.78125 125.628906 212.542969 C 125.519531 212.304688 125.457031 212.054688 125.441406 211.789062 C 125.414062 210.492188 125.554688 209.214844 125.859375 207.953125 C 126.164062 206.691406 126.621094 205.488281 127.238281 204.347656 C 127.855469 203.203125 128.605469 202.160156 129.492188 201.214844 C 130.378906 200.265625 131.375 199.449219 132.472656 198.757812 C 132.699219 198.601562 132.949219 198.496094 133.21875 198.441406 C 133.488281 198.382812 133.761719 198.382812 134.03125 198.433594 C 134.304688 198.484375 134.554688 198.585938 134.785156 198.734375 C 135.015625 198.886719 135.210938 199.074219 135.363281 199.304688 C 135.519531 199.53125 135.625 199.78125 135.683594 200.050781 C 135.738281 200.320312 135.742188 200.589844 135.691406 200.863281 C 135.640625 201.132812 135.542969 201.382812 135.390625 201.613281 C 135.238281 201.847656 135.050781 202.039062 134.824219 202.195312 C 134.03125 202.679688 133.308594 203.257812 132.664062 203.925781 C 132.015625 204.59375 131.464844 205.332031 131.003906 206.140625 C 130.546875 206.949219 130.195312 207.800781 129.953125 208.699219 C 129.710938 209.597656 129.585938 210.511719 129.578125 211.441406 C 129.601562 211.71875 129.570312 211.992188 129.484375 212.257812 C 129.398438 212.527344 129.265625 212.765625 129.082031 212.976562 C 128.898438 213.1875 128.683594 213.359375 128.433594 213.480469 C 128.179688 213.605469 127.914062 213.675781 127.636719 213.695312 Z M 127.5 213.734375 " fill-opacity="1" fill-rule="nonzero"/><path fill="#3c3c3b" d="M 187.929688 210.605469 C 187.652344 210.609375 187.386719 210.558594 187.132812 210.453125 C 186.878906 210.351562 186.65625 210.203125 186.460938 210.011719 C 186.265625 209.816406 186.113281 209.59375 186.007812 209.339844 C 185.902344 209.085938 185.847656 208.820312 185.847656 208.546875 C 185.847656 208.253906 185.695312 201.242188 179.496094 199.339844 C 179.1875 199.308594 178.898438 199.210938 178.632812 199.046875 C 178.367188 198.886719 178.148438 198.675781 177.976562 198.414062 C 177.804688 198.152344 177.699219 197.867188 177.65625 197.558594 C 177.613281 197.25 177.636719 196.945312 177.730469 196.648438 C 177.824219 196.351562 177.976562 196.089844 178.191406 195.859375 C 178.402344 195.628906 178.652344 195.457031 178.945312 195.34375 C 179.234375 195.226562 179.535156 195.179688 179.84375 195.199219 C 180.15625 195.21875 180.449219 195.304688 180.722656 195.457031 C 188.042969 197.707031 189.988281 205.050781 190.007812 208.605469 C 190.007812 208.882812 189.953125 209.144531 189.847656 209.402344 C 189.742188 209.65625 189.59375 209.878906 189.398438 210.074219 C 189.203125 210.269531 188.976562 210.421875 188.722656 210.527344 C 188.46875 210.632812 188.203125 210.683594 187.929688 210.683594 Z M 187.929688 210.605469 " fill-opacity="1" fill-rule="nonzero"/><path fill="#3c3c3b" d="M 134.726562 175.410156 C 134.117188 175.417969 133.605469 175.195312 133.191406 174.75 C 133.015625 174.550781 132.878906 174.324219 132.789062 174.070312 C 132.699219 173.816406 132.660156 173.558594 132.671875 173.289062 C 132.683594 173.019531 132.742188 172.765625 132.851562 172.519531 C 132.964844 172.277344 133.113281 172.0625 133.308594 171.875 C 139.015625 167.222656 145.441406 163.984375 152.578125 162.164062 C 152.84375 162.089844 153.113281 162.066406 153.386719 162.101562 C 153.660156 162.132812 153.914062 162.214844 154.15625 162.351562 C 154.398438 162.484375 154.601562 162.660156 154.773438 162.878906 C 154.941406 163.09375 155.066406 163.335938 155.140625 163.601562 C 155.214844 163.867188 155.234375 164.136719 155.203125 164.410156 C 155.171875 164.683594 155.085938 164.941406 154.953125 165.179688 C 154.816406 165.421875 154.640625 165.625 154.425781 165.796875 C 154.210938 165.96875 153.96875 166.089844 153.703125 166.164062 C 147.265625 167.816406 141.4375 170.703125 136.222656 174.828125 C 135.8125 175.246094 135.3125 175.441406 134.726562 175.410156 Z M 134.726562 175.410156 " fill-opacity="1" fill-rule="nonzero"/><path fill="#3c3c3b" d="M 156.074219 177.042969 C 155.410156 177.039062 154.875 176.78125 154.460938 176.265625 C 153.644531 175.316406 152.722656 174.488281 151.691406 173.785156 C 150.65625 173.078125 149.550781 172.515625 148.371094 172.101562 C 147.195312 171.683594 145.980469 171.429688 144.734375 171.332031 C 143.488281 171.234375 142.25 171.296875 141.019531 171.527344 C 140.75 171.585938 140.480469 171.59375 140.207031 171.546875 C 139.9375 171.5 139.683594 171.402344 139.449219 171.253906 C 139.21875 171.105469 139.023438 170.917969 138.863281 170.695312 C 138.703125 170.46875 138.59375 170.222656 138.535156 169.953125 C 138.472656 169.683594 138.46875 169.414062 138.515625 169.140625 C 138.5625 168.867188 138.660156 168.617188 138.804688 168.382812 C 138.953125 168.148438 139.140625 167.953125 139.363281 167.796875 C 139.589844 167.636719 139.835938 167.527344 140.105469 167.464844 C 141.707031 167.160156 143.320312 167.066406 144.945312 167.191406 C 146.570312 167.3125 148.152344 167.644531 149.6875 168.191406 C 151.226562 168.734375 152.664062 169.472656 154.003906 170.398438 C 155.34375 171.328125 156.539062 172.414062 157.589844 173.664062 C 157.835938 173.972656 157.984375 174.328125 158.03125 174.722656 C 158.078125 175.121094 158.015625 175.5 157.84375 175.859375 C 157.671875 176.21875 157.417969 176.503906 157.078125 176.71875 C 156.742188 176.933594 156.375 177.039062 155.976562 177.042969 Z M 156.074219 177.042969 " fill-opacity="1" fill-rule="nonzero"/><path fill="#3c3c3b" d="M 164.210938 225.835938 C 163.8125 225.816406 163.445312 225.691406 163.117188 225.460938 C 162.789062 225.234375 162.546875 224.933594 162.390625 224.566406 C 162.238281 224.195312 162.191406 223.8125 162.257812 223.417969 C 162.324219 223.023438 162.488281 222.675781 162.753906 222.375 C 163.636719 221.535156 164.605469 220.808594 165.664062 220.199219 C 166.71875 219.589844 167.835938 219.117188 169.007812 218.777344 C 170.179688 218.441406 171.375 218.246094 172.59375 218.199219 C 173.8125 218.148438 175.019531 218.246094 176.214844 218.492188 C 176.46875 218.570312 176.699219 218.695312 176.902344 218.863281 C 177.109375 219.03125 177.277344 219.230469 177.40625 219.464844 C 177.535156 219.695312 177.617188 219.945312 177.652344 220.207031 C 177.683594 220.472656 177.667969 220.730469 177.601562 220.988281 C 177.539062 221.246094 177.425781 221.484375 177.269531 221.699219 C 177.113281 221.914062 176.921875 222.089844 176.699219 222.234375 C 176.472656 222.375 176.230469 222.46875 175.96875 222.519531 C 175.707031 222.566406 175.445312 222.566406 175.1875 222.511719 C 174.339844 222.339844 173.488281 222.273438 172.625 222.304688 C 171.765625 222.335938 170.917969 222.472656 170.089844 222.707031 C 169.261719 222.941406 168.46875 223.269531 167.71875 223.695312 C 166.96875 224.117188 166.277344 224.625 165.648438 225.210938 C 165.253906 225.617188 164.777344 225.824219 164.210938 225.835938 Z M 164.210938 225.835938 " fill-opacity="1" fill-rule="nonzero"/><path fill="#3c3c3b" d="M 170.738281 162.164062 C 170.488281 162.164062 170.246094 162.121094 170.011719 162.03125 C 169.777344 161.945312 169.5625 161.820312 169.375 161.65625 C 169.183594 161.492188 169.03125 161.296875 168.910156 161.078125 C 168.792969 160.859375 168.714844 160.625 168.679688 160.375 C 168.574219 159.714844 168.375 159.085938 168.074219 158.488281 C 167.773438 157.890625 167.386719 157.355469 166.921875 156.878906 C 166.453125 156.398438 165.921875 156.003906 165.328125 155.695312 C 164.738281 155.382812 164.113281 155.167969 163.453125 155.054688 C 163.195312 154.992188 162.953125 154.882812 162.734375 154.730469 C 162.519531 154.574219 162.335938 154.386719 162.191406 154.160156 C 162.046875 153.9375 161.949219 153.695312 161.894531 153.429688 C 161.84375 153.167969 161.84375 152.90625 161.894531 152.644531 C 161.945312 152.382812 162.042969 152.136719 162.183594 151.910156 C 162.328125 151.6875 162.511719 151.496094 162.726562 151.339844 C 162.945312 151.1875 163.183594 151.078125 163.445312 151.011719 C 163.703125 150.949219 163.964844 150.9375 164.230469 150.976562 C 165.316406 151.171875 166.34375 151.527344 167.316406 152.046875 C 168.289062 152.566406 169.160156 153.21875 169.929688 154.011719 C 170.695312 154.800781 171.324219 155.691406 171.816406 156.675781 C 172.304688 157.664062 172.632812 158.703125 172.796875 159.792969 C 172.839844 160.066406 172.824219 160.335938 172.757812 160.601562 C 172.691406 160.871094 172.578125 161.113281 172.414062 161.332031 C 172.25 161.554688 172.050781 161.734375 171.8125 161.875 C 171.574219 162.015625 171.320312 162.105469 171.046875 162.144531 Z M 170.738281 162.164062 " fill-opacity="1" fill-rule="nonzero"/><path fill="#3c3c3b" d="M 207.117188 257.804688 C 205.082031 257.796875 203.09375 257.492188 201.148438 256.890625 C 199.203125 256.292969 197.386719 255.425781 195.699219 254.289062 C 194.203125 253.300781 192.851562 252.144531 191.640625 250.820312 C 190.433594 249.496094 189.40625 248.042969 188.558594 246.464844 C 187.710938 244.882812 187.070312 243.222656 186.632812 241.484375 C 186.199219 239.746094 185.980469 237.980469 185.984375 236.1875 L 185.984375 135.183594 C 185.984375 133.414062 186.199219 131.671875 186.628906 129.957031 C 187.058594 128.242188 187.691406 126.601562 188.523438 125.042969 C 189.359375 123.484375 190.367188 122.046875 191.554688 120.734375 C 192.742188 119.425781 194.070312 118.277344 195.542969 117.292969 C 196.957031 116.320312 198.46875 115.53125 200.078125 114.933594 C 201.6875 114.335938 203.347656 113.945312 205.054688 113.757812 C 206.761719 113.574219 208.464844 113.601562 210.167969 113.84375 C 211.867188 114.082031 213.511719 114.527344 215.101562 115.175781 C 217.273438 116.078125 219.316406 117.207031 221.238281 118.558594 C 222.203125 119.203125 223.113281 119.917969 223.972656 120.703125 C 224.828125 121.484375 225.621094 122.328125 226.351562 123.230469 C 227.082031 124.132812 227.738281 125.085938 228.328125 126.085938 C 228.914062 127.085938 229.421875 128.125 229.855469 129.203125 C 230.285156 130.28125 230.632812 131.386719 230.898438 132.515625 C 231.164062 133.648438 231.339844 134.789062 231.433594 135.949219 C 231.527344 137.105469 231.535156 138.261719 231.453125 139.417969 C 231.371094 140.578125 231.203125 141.722656 230.953125 142.855469 C 233.539062 142.585938 236.023438 142.964844 238.410156 144.003906 C 239.5 144.558594 240.527344 145.214844 241.484375 145.972656 C 242.445312 146.734375 243.320312 147.578125 244.109375 148.511719 C 244.898438 149.445312 245.589844 150.449219 246.179688 151.519531 C 246.769531 152.59375 247.25 153.710938 247.617188 154.878906 C 248.21875 156.398438 248.601562 157.96875 248.765625 159.59375 C 248.929688 161.21875 248.871094 162.835938 248.585938 164.445312 C 248.300781 166.054688 247.800781 167.59375 247.089844 169.0625 C 246.378906 170.535156 245.480469 171.878906 244.394531 173.097656 C 246.824219 174.941406 248.875 177.140625 250.542969 179.695312 C 252.210938 182.25 253.398438 185.011719 254.105469 187.976562 C 255.25 193.804688 253.675781 199.902344 249.441406 205.925781 C 251.753906 213.5 250.140625 221.25 244.625 228.980469 C 240.042969 235.429688 232.332031 236.515625 228.621094 236.75 C 228.433594 238.578125 228.046875 240.359375 227.460938 242.097656 C 226.878906 243.839844 226.109375 245.492188 225.15625 247.0625 C 224.207031 248.632812 223.09375 250.074219 221.816406 251.398438 C 220.542969 252.71875 219.140625 253.882812 217.605469 254.890625 C 216.777344 255.402344 215.917969 255.847656 215.023438 256.234375 C 212.492188 257.28125 209.859375 257.804688 207.117188 257.804688 Z M 207.117188 117.761719 C 205.4375 117.769531 203.792969 118.023438 202.1875 118.523438 C 200.582031 119.019531 199.085938 119.746094 197.699219 120.695312 C 196.507812 121.488281 195.433594 122.414062 194.472656 123.472656 C 193.507812 124.53125 192.691406 125.691406 192.011719 126.949219 C 191.335938 128.210938 190.820312 129.535156 190.46875 130.921875 C 190.113281 132.304688 189.933594 133.714844 189.929688 135.144531 L 189.929688 236.148438 C 189.929688 237.601562 190.105469 239.035156 190.460938 240.441406 C 190.820312 241.851562 191.34375 243.195312 192.035156 244.476562 C 192.726562 245.753906 193.566406 246.929688 194.550781 247.996094 C 195.535156 249.066406 196.636719 250 197.851562 250.792969 C 198.980469 251.558594 200.1875 252.171875 201.472656 252.636719 C 202.753906 253.097656 204.074219 253.390625 205.433594 253.523438 C 206.792969 253.652344 208.144531 253.609375 209.492188 253.398438 C 210.839844 253.183594 212.140625 252.808594 213.390625 252.269531 C 214.066406 251.96875 214.710938 251.617188 215.335938 251.222656 C 224.386719 245.570312 224.5625 234.613281 224.5625 234.515625 C 224.558594 233.910156 224.777344 233.398438 225.222656 232.980469 C 225.667969 232.578125 226.195312 232.398438 226.792969 232.4375 C 226.792969 232.4375 236.507812 233.117188 241.1875 226.609375 C 245.867188 220.105469 247.617188 213.171875 245.5 206.839844 C 245.289062 206.425781 245.203125 205.992188 245.234375 205.53125 C 245.265625 205.070312 245.410156 204.652344 245.675781 204.273438 C 249.558594 198.972656 251.152344 193.765625 250.199219 188.734375 C 248.570312 180.285156 240.253906 175.136719 240.179688 175.136719 C 239.886719 174.960938 239.652344 174.726562 239.476562 174.4375 C 239.300781 174.144531 239.207031 173.828125 239.1875 173.488281 C 239.152344 172.773438 239.410156 172.191406 239.964844 171.738281 C 240.503906 171.285156 241.003906 170.789062 241.464844 170.257812 C 241.925781 169.722656 242.34375 169.15625 242.71875 168.558594 C 243.09375 167.960938 243.417969 167.339844 243.695312 166.6875 C 243.972656 166.039062 244.195312 165.375 244.371094 164.691406 C 244.542969 164.007812 244.660156 163.3125 244.726562 162.609375 C 244.792969 161.910156 244.804688 161.207031 244.757812 160.5 C 244.714844 159.796875 244.617188 159.101562 244.464844 158.414062 C 244.3125 157.722656 244.105469 157.050781 243.847656 156.394531 C 239.070312 144.058594 229.84375 147.128906 228.816406 147.519531 C 228.429688 147.664062 228.039062 147.691406 227.636719 147.601562 C 227.234375 147.515625 226.890625 147.324219 226.601562 147.03125 C 226.292969 146.75 226.097656 146.40625 226.011719 146 C 225.925781 145.59375 225.96875 145.199219 226.132812 144.816406 C 226.347656 144.253906 231.378906 130.675781 218.890625 121.996094 C 217.21875 120.808594 215.4375 119.824219 213.546875 119.042969 C 211.515625 118.199219 209.398438 117.773438 207.195312 117.761719 Z M 207.117188 117.761719 " fill-opacity="1" fill-rule="nonzero"/><path fill="#3c3c3b" d="M 211.644531 154.917969 C 211.199219 154.917969 210.75 154.917969 210.324219 154.917969 C 209.253906 154.878906 208.207031 154.710938 207.179688 154.417969 C 206.152344 154.128906 205.171875 153.71875 204.238281 153.195312 C 203.308594 152.667969 202.453125 152.042969 201.671875 151.3125 C 200.890625 150.582031 200.207031 149.769531 199.621094 148.878906 C 199.496094 148.648438 199.417969 148.402344 199.386719 148.144531 C 199.355469 147.886719 199.371094 147.628906 199.4375 147.375 C 199.503906 147.121094 199.609375 146.890625 199.761719 146.679688 C 199.914062 146.464844 200.101562 146.289062 200.320312 146.148438 C 200.539062 146.003906 200.777344 145.910156 201.03125 145.855469 C 201.289062 145.804688 201.542969 145.800781 201.800781 145.84375 C 202.058594 145.886719 202.300781 145.976562 202.523438 146.113281 C 202.746094 146.246094 202.9375 146.417969 203.097656 146.625 C 203.519531 147.25 204.007812 147.816406 204.566406 148.324219 C 205.121094 148.832031 205.734375 149.265625 206.398438 149.621094 C 207.058594 149.980469 207.757812 150.253906 208.484375 150.445312 C 209.214844 150.632812 209.957031 150.734375 210.710938 150.742188 C 212.1875 150.777344 213.652344 150.65625 215.105469 150.386719 C 216.554688 150.117188 217.964844 149.695312 219.328125 149.132812 C 220.695312 148.566406 221.984375 147.867188 223.203125 147.03125 C 224.421875 146.195312 225.542969 145.246094 226.5625 144.175781 C 226.742188 143.960938 226.957031 143.792969 227.207031 143.664062 C 227.457031 143.535156 227.722656 143.460938 228 143.441406 C 228.28125 143.421875 228.554688 143.457031 228.820312 143.546875 C 229.085938 143.636719 229.320312 143.773438 229.53125 143.960938 C 229.742188 144.148438 229.90625 144.367188 230.027344 144.617188 C 230.148438 144.871094 230.214844 145.136719 230.226562 145.417969 C 230.242188 145.699219 230.199219 145.96875 230.101562 146.234375 C 230.003906 146.496094 229.859375 146.730469 229.667969 146.933594 C 228.503906 148.164062 227.234375 149.265625 225.851562 150.242188 C 224.46875 151.214844 223.003906 152.046875 221.457031 152.730469 C 219.910156 153.417969 218.308594 153.941406 216.660156 154.3125 C 215.007812 154.679688 213.335938 154.882812 211.644531 154.917969 Z M 211.644531 154.917969 " fill-opacity="1" fill-rule="nonzero"/><path fill="#3c3c3b" d="M 226.851562 236.632812 L 226.660156 236.632812 C 226.019531 236.632812 210.75 235.003906 205.292969 213.480469 C 205.226562 213.214844 205.210938 212.941406 205.25 212.667969 C 205.289062 212.394531 205.378906 212.140625 205.519531 211.902344 C 205.664062 211.664062 205.84375 211.464844 206.066406 211.296875 C 206.285156 211.132812 206.53125 211.015625 206.796875 210.949219 C 207.066406 210.878906 207.335938 210.863281 207.609375 210.90625 C 207.882812 210.945312 208.140625 211.035156 208.375 211.175781 C 208.613281 211.316406 208.816406 211.496094 208.980469 211.71875 C 209.148438 211.9375 209.265625 212.183594 209.332031 212.453125 C 214.035156 231 226.523438 232.457031 227.066406 232.515625 C 227.324219 232.550781 227.566406 232.628906 227.796875 232.753906 C 228.023438 232.882812 228.222656 233.042969 228.390625 233.242188 C 228.554688 233.445312 228.679688 233.667969 228.765625 233.914062 C 228.847656 234.160156 228.882812 234.414062 228.871094 234.675781 C 228.859375 234.933594 228.800781 235.183594 228.691406 235.421875 C 228.585938 235.660156 228.441406 235.871094 228.257812 236.054688 C 228.070312 236.234375 227.859375 236.378906 227.621094 236.484375 C 227.382812 236.585938 227.132812 236.644531 226.871094 236.652344 Z M 226.851562 236.632812 " fill-opacity="1" fill-rule="nonzero"/><path fill="#3c3c3b" d="M 248.472656 213.734375 L 248.296875 213.734375 C 248.019531 213.714844 247.757812 213.640625 247.507812 213.515625 C 247.261719 213.394531 247.046875 213.226562 246.863281 213.015625 C 246.683594 212.808594 246.546875 212.570312 246.460938 212.308594 C 246.371094 212.046875 246.335938 211.777344 246.355469 211.5 C 246.347656 210.570312 246.222656 209.65625 245.984375 208.753906 C 245.746094 207.855469 245.398438 207.003906 244.941406 206.191406 C 244.484375 205.382812 243.929688 204.640625 243.285156 203.972656 C 242.640625 203.300781 241.921875 202.722656 241.128906 202.234375 C 240.898438 202.082031 240.710938 201.890625 240.554688 201.664062 C 240.402344 201.433594 240.300781 201.183594 240.246094 200.914062 C 240.195312 200.644531 240.195312 200.375 240.25 200.105469 C 240.304688 199.835938 240.410156 199.585938 240.566406 199.359375 C 240.722656 199.132812 240.914062 198.941406 241.144531 198.789062 C 241.375 198.640625 241.625 198.535156 241.898438 198.484375 C 242.167969 198.429688 242.4375 198.433594 242.710938 198.484375 C 242.980469 198.539062 243.230469 198.644531 243.460938 198.796875 C 244.558594 199.488281 245.550781 200.308594 246.4375 201.257812 C 247.324219 202.203125 248.074219 203.25 248.691406 204.390625 C 249.308594 205.53125 249.773438 206.730469 250.082031 207.992188 C 250.390625 209.253906 250.53125 210.53125 250.511719 211.828125 C 250.488281 212.085938 250.417969 212.328125 250.304688 212.558594 C 250.191406 212.792969 250.042969 212.996094 249.855469 213.167969 C 249.664062 213.34375 249.453125 213.480469 249.214844 213.578125 C 248.976562 213.675781 248.730469 213.726562 248.472656 213.734375 Z M 248.472656 213.734375 " fill-opacity="1" fill-rule="nonzero"/><path fill="#3c3c3b" d="M 188.042969 210.605469 C 187.769531 210.605469 187.503906 210.554688 187.25 210.449219 C 186.996094 210.34375 186.769531 210.191406 186.574219 209.996094 C 186.378906 209.800781 186.230469 209.578125 186.125 209.324219 C 186.019531 209.070312 185.964844 208.804688 185.964844 208.527344 C 185.964844 204.972656 187.910156 197.632812 195.269531 195.378906 C 195.507812 195.351562 195.742188 195.367188 195.976562 195.425781 C 196.210938 195.480469 196.425781 195.574219 196.625 195.707031 C 196.828125 195.839844 197 196 197.144531 196.191406 C 197.289062 196.382812 197.394531 196.59375 197.46875 196.820312 C 197.539062 197.050781 197.570312 197.28125 197.5625 197.523438 C 197.554688 197.761719 197.503906 197.992188 197.417969 198.214844 C 197.328125 198.4375 197.203125 198.640625 197.046875 198.820312 C 196.886719 199 196.703125 199.148438 196.492188 199.261719 C 190.277344 201.203125 190.121094 208.179688 190.121094 208.46875 C 190.132812 208.75 190.089844 209.023438 189.988281 209.285156 C 189.886719 209.546875 189.738281 209.78125 189.542969 209.984375 C 189.34375 210.183594 189.117188 210.339844 188.855469 210.449219 C 188.597656 210.554688 188.324219 210.609375 188.042969 210.605469 Z M 188.042969 210.605469 " fill-opacity="1" fill-rule="nonzero"/><path fill="#3c3c3b" d="M 241.246094 175.410156 C 240.710938 175.410156 240.242188 175.226562 239.847656 174.867188 C 234.632812 170.742188 228.804688 167.855469 222.367188 166.203125 C 222.097656 166.136719 221.855469 166.019531 221.632812 165.851562 C 221.410156 165.6875 221.230469 165.484375 221.089844 165.246094 C 220.949219 165.011719 220.855469 164.753906 220.816406 164.480469 C 220.777344 164.207031 220.792969 163.9375 220.859375 163.667969 C 220.929688 163.402344 221.046875 163.15625 221.210938 162.933594 C 221.378906 162.714844 221.578125 162.53125 221.816406 162.390625 C 222.054688 162.25 222.308594 162.160156 222.582031 162.121094 C 222.855469 162.082031 223.128906 162.09375 223.394531 162.164062 C 230.53125 163.984375 236.957031 167.222656 242.664062 171.875 C 242.867188 172.0625 243.023438 172.28125 243.140625 172.53125 C 243.253906 172.78125 243.316406 173.042969 243.328125 173.316406 C 243.339844 173.59375 243.296875 173.859375 243.203125 174.117188 C 243.109375 174.375 242.96875 174.605469 242.78125 174.808594 C 242.355469 175.230469 241.84375 175.433594 241.246094 175.410156 Z M 241.246094 175.410156 " fill-opacity="1" fill-rule="nonzero"/><path fill="#3c3c3b" d="M 219.898438 177.042969 C 219.410156 177.039062 218.976562 176.882812 218.597656 176.574219 C 218.386719 176.402344 218.214844 176.195312 218.082031 175.953125 C 217.949219 175.714844 217.871094 175.457031 217.839844 175.183594 C 217.8125 174.910156 217.835938 174.640625 217.914062 174.378906 C 217.992188 174.113281 218.117188 173.875 218.289062 173.664062 C 219.347656 172.398438 220.554688 171.296875 221.90625 170.359375 C 223.261719 169.421875 224.71875 168.683594 226.273438 168.136719 C 227.828125 167.589844 229.429688 167.261719 231.074219 167.148438 C 232.71875 167.035156 234.347656 167.140625 235.960938 167.464844 C 236.230469 167.523438 236.480469 167.632812 236.707031 167.792969 C 236.929688 167.949219 237.117188 168.144531 237.265625 168.375 C 237.414062 168.609375 237.515625 168.859375 237.5625 169.132812 C 237.609375 169.402344 237.605469 169.671875 237.546875 169.941406 C 237.488281 170.210938 237.378906 170.460938 237.21875 170.683594 C 237.0625 170.910156 236.867188 171.097656 236.636719 171.246094 C 236.402344 171.394531 236.152344 171.492188 235.878906 171.542969 C 235.609375 171.589844 235.339844 171.585938 235.070312 171.527344 C 233.839844 171.292969 232.601562 171.222656 231.351562 171.316406 C 230.105469 171.410156 228.890625 171.667969 227.710938 172.082031 C 226.53125 172.5 225.421875 173.0625 224.390625 173.773438 C 223.359375 174.480469 222.4375 175.3125 221.628906 176.265625 C 221.183594 176.816406 220.605469 177.074219 219.898438 177.042969 Z M 219.898438 177.042969 " fill-opacity="1" fill-rule="nonzero"/><path fill="#3c3c3b" d="M 211.78125 225.835938 C 211.214844 225.835938 210.730469 225.640625 210.324219 225.25 C 209.691406 224.664062 209 224.160156 208.25 223.738281 C 207.5 223.316406 206.710938 222.988281 205.878906 222.753906 C 205.050781 222.515625 204.207031 222.382812 203.34375 222.347656 C 202.484375 222.316406 201.632812 222.382812 200.785156 222.550781 C 200.515625 222.617188 200.246094 222.632812 199.972656 222.589844 C 199.695312 222.550781 199.441406 222.457031 199.203125 222.316406 C 198.964844 222.171875 198.761719 221.988281 198.597656 221.765625 C 198.433594 221.542969 198.316406 221.296875 198.25 221.027344 C 198.183594 220.757812 198.171875 220.484375 198.210938 220.210938 C 198.253906 219.9375 198.34375 219.679688 198.488281 219.445312 C 198.632812 219.207031 198.8125 219.003906 199.039062 218.839844 C 199.261719 218.675781 199.507812 218.558594 199.777344 218.492188 C 200.972656 218.25 202.179688 218.152344 203.398438 218.199219 C 204.617188 218.25 205.8125 218.441406 206.984375 218.78125 C 208.15625 219.117188 209.269531 219.59375 210.328125 220.199219 C 211.386719 220.808594 212.355469 221.535156 213.238281 222.375 C 213.429688 222.570312 213.582031 222.796875 213.683594 223.050781 C 213.789062 223.304688 213.84375 223.570312 213.84375 223.84375 C 213.84375 224.117188 213.789062 224.382812 213.683594 224.636719 C 213.582031 224.890625 213.429688 225.113281 213.238281 225.308594 C 212.820312 225.675781 212.335938 225.851562 211.78125 225.835938 Z M 211.78125 225.835938 " fill-opacity="1" fill-rule="nonzero"/><path fill="#3c3c3b" d="M 205.234375 162.164062 L 204.886719 162.164062 C 204.613281 162.125 204.355469 162.035156 204.117188 161.894531 C 203.882812 161.753906 203.679688 161.574219 203.515625 161.355469 C 203.347656 161.132812 203.230469 160.890625 203.164062 160.625 C 203.09375 160.355469 203.078125 160.085938 203.117188 159.8125 C 203.285156 158.722656 203.613281 157.683594 204.105469 156.695312 C 204.597656 155.707031 205.226562 154.820312 205.996094 154.027344 C 206.765625 153.238281 207.636719 152.582031 208.613281 152.066406 C 209.585938 151.546875 210.617188 151.191406 211.703125 150.996094 C 211.980469 150.929688 212.257812 150.921875 212.535156 150.96875 C 212.816406 151.015625 213.074219 151.117188 213.3125 151.269531 C 213.550781 151.425781 213.75 151.621094 213.910156 151.855469 C 214.066406 152.089844 214.171875 152.347656 214.226562 152.628906 C 214.277344 152.90625 214.273438 153.183594 214.214844 153.460938 C 214.152344 153.738281 214.039062 153.992188 213.875 154.222656 C 213.710938 154.453125 213.507812 154.644531 213.265625 154.792969 C 213.023438 154.9375 212.761719 155.035156 212.480469 155.074219 C 211.820312 155.1875 211.191406 155.398438 210.597656 155.710938 C 210.003906 156.019531 209.472656 156.414062 209 156.890625 C 208.53125 157.367188 208.144531 157.90625 207.84375 158.503906 C 207.542969 159.101562 207.339844 159.734375 207.234375 160.394531 C 207.199219 160.636719 207.121094 160.863281 207.003906 161.078125 C 206.890625 161.292969 206.738281 161.480469 206.554688 161.644531 C 206.375 161.804688 206.167969 161.929688 205.941406 162.019531 C 205.714844 162.109375 205.476562 162.15625 205.234375 162.164062 Z M 205.234375 162.164062 " fill-opacity="1" fill-rule="nonzero"/></svg>