<svg xmlns="http://www.w3.org/2000/svg" xmlns:xlink="http://www.w3.org/1999/xlink" width="500" zoomAndPan="magnify" viewBox="0 0 375 374.999991" height="500" preserveAspectRatio="xMidYMid meet" version="1.0"><path fill="#000000" d="M 64.191406 118.019531 C 85.515625 118.019531 106.835938 118.019531 128.160156 118.019531 C 128.21875 118.257812 128.28125 118.496094 128.34375 118.734375 C 127.785156 119.023438 127.246094 119.472656 126.652344 119.574219 C 119.199219 120.886719 116.355469 125.492188 119.089844 132.550781 C 122.664062 141.785156 126.550781 150.902344 130.308594 160.070312 C 137.417969 177.4375 144.527344 194.816406 151.636719 212.1875 C 151.972656 213.011719 152.386719 213.804688 153.0625 215.25 C 153.902344 213.566406 154.558594 212.398438 155.082031 211.167969 C 168.242188 180.503906 181.160156 149.730469 194.683594 119.21875 C 198.71875 110.113281 203.738281 101.234375 209.578125 93.175781 C 220.574219 78.003906 235.566406 68.929688 254.734375 67.59375 C 216.210938 40.347656 138.4375 30.59375 79.800781 83.066406 C 18.488281 137.941406 12.957031 234.566406 73.628906 296.410156 C 35.242188 267.539062 6.363281 205.996094 24.859375 140.65625 C 43.773438 73.832031 108.601562 27.980469 177.46875 32.691406 C 209.820312 34.902344 263.191406 57.457031 264.800781 69.226562 C 259.261719 70.761719 253.601562 71.824219 248.339844 73.894531 C 236.617188 78.492188 227.578125 86.828125 221.496094 97.550781 C 214.246094 110.328125 207.871094 123.65625 201.851562 137.074219 C 183.59375 177.753906 165.691406 218.589844 147.65625 259.363281 C 147.554688 259.601562 147.5 259.875 147.347656 260.078125 C 146.617188 261.0625 145.855469 262.03125 145.113281 263 C 144.335938 262.070312 143.320312 261.257812 142.820312 260.203125 C 137.699219 249.355469 132.652344 238.476562 127.59375 227.597656 C 113.195312 196.617188 98.726562 165.679688 84.464844 134.636719 C 80.519531 126.046875 74.925781 120.085938 64.960938 119.472656 C 64.65625 119.453125 64.375 119.082031 64.082031 118.871094 C 64.117188 118.585938 64.152344 118.296875 64.191406 118.019531 Z M 64.191406 118.019531 " fill-opacity="1" fill-rule="nonzero"/><path fill="#c1292e" d="M 300.023438 75.6875 C 348.46875 114.660156 368.648438 183.785156 343.648438 246.027344 C 318.402344 308.878906 253.453125 347.292969 187.09375 338.792969 C 157.421875 334.992188 110.113281 313.199219 108.730469 303.023438 C 114.144531 301.554688 119.695312 300.585938 124.832031 298.550781 C 138.566406 293.113281 148.386719 282.867188 154.964844 270.117188 C 163.566406 253.457031 171.15625 236.265625 178.8125 219.140625 C 194.667969 183.675781 210.277344 148.105469 226.03125 112.59375 C 226.570312 111.378906 227.585938 110.382812 228.382812 109.277344 C 229.285156 110.429688 230.4375 111.453125 231.039062 112.742188 C 250.472656 154.457031 269.90625 196.175781 289.207031 237.953125 C 293.113281 246.40625 298.71875 252.195312 308.511719 252.78125 C 308.832031 252.804688 309.125 253.15625 309.46875 253.375 C 307.195312 254.945312 249.332031 255.273438 244.398438 253.375 C 246.273438 252.960938 247.246094 252.75 248.222656 252.53125 C 253.691406 251.328125 256.332031 247.246094 255.042969 241.78125 C 254.660156 240.140625 254.019531 238.558594 253.378906 236.996094 C 243.003906 211.667969 232.613281 186.347656 222.21875 161.03125 C 221.742188 159.871094 221.203125 158.730469 220.359375 156.828125 C 218.617188 160.8125 217.171875 164.082031 215.761719 167.363281 C 202.457031 198.25 189.351562 229.222656 175.703125 259.957031 C 172.511719 267.144531 168 273.921875 163.175781 280.179688 C 152.027344 294.65625 137.378906 303.398438 118.570312 304.703125 C 161.785156 334.117188 239.894531 339.886719 296.429688 286.730469 C 355.105469 231.550781 359.742188 136.726562 300.023438 75.6875 Z M 300.023438 75.6875 " fill-opacity="1" fill-rule="nonzero"/></svg>